PathFileType	4	(X/Y/Z)	/Users/itak/Documents/Research/Walk-IL/dataset/trc/00310_00010.trc
DataRate	CameraRate	NumFrames	NumMarkers	Units	OrigDataRate	OrigDataStartFrame	OrigNumFrames
100.000000	100.000000	4	53	mm	100.000000	457	523
Frame#	Time	RPSI			LPSI			L3			STRN			T10			C7			CLAV			RBAK			LBAK			LSHO			LUPA			LAEL			LAOL			LWTS			LWPS			LFRA			LIFD			LHPS			LHTS			RSHO			RUPA			RAEL			RAOL			RWTS			RWPS			RFRA			RIFD			RHTS			RHPS			RBHD			LFHD			RFHD			LBHD			LHIP			RHIP			RASI			LASI			LKNE			LTHI			LANK			LTIP			LTOE			LMT1			LMT5			LHEE			RKNE			RTHI			RANK			RTIP			RTOE			RMT1			RMT5			RHEE			
		X1	Y1	Z1	X2	Y2	Z2	X3	Y3	Z3	X4	Y4	Z4	X5	Y5	Z5	X6	Y6	Z6	X7	Y7	Z7	X8	Y8	Z8	X9	Y9	Z9	X10	Y10	Z10	X11	Y11	Z11	X12	Y12	Z12	X13	Y13	Z13	X14	Y14	Z14	X15	Y15	Z15	X16	Y16	Z16	X17	Y17	Z17	X18	Y18	Z18	X19	Y19	Z19	X20	Y20	Z20	X21	Y21	Z21	X22	Y22	Z22	X23	Y23	Z23	X24	Y24	Z24	X25	Y25	Z25	X26	Y26	Z26	X27	Y27	Z27	X28	Y28	Z28	X29	Y29	Z29	X30	Y30	Z30	X31	Y31	Z31	X32	Y32	Z32	X33	Y33	Z33	X34	Y34	Z34	X35	Y35	Z35	X36	Y36	Z36	X37	Y37	Z37	X38	Y38	Z38	X39	Y39	Z39	X40	Y40	Z40	X41	Y41	Z41	X42	Y42	Z42	X43	Y43	Z43	X44	Y44	Z44	X45	Y45	Z45	X46	Y46	Z46	X47	Y47	Z47	X48	Y48	Z48	X49	Y49	Z49	X50	Y50	Z50	X51	Y51	Z51	X52	Y52	Z52	X53	Y53	Z53	

458	4.57	660.5643310546875	1015.347412109375	583.6099243164062	834.6361083984375	1000.208068847656	599.9854736328125	751.9855346679688	1073.459350585938	611.3764038085938	747.9547119140625	1243.080200195312	862.0743408203125	756.7113647460938	1185.03369140625	597.5018920898438	778.4634399414062	1430.463745117188	645.8289794921875	758.9730224609375	1345.11328125	801.9002685546875	700.1741943359375	1294.6240234375	586.3013305664062	882.432373046875	1389.21337890625	638.5169067382812	928.59521484375	1393.021484375	732.5390625	998.7872924804688	1273.226318359375	708.974853515625	1005.412902832031	1069.652099609375	705.7496337890625	943.4865112304688	1060.712158203125	645.5355224609375	956.5139770507812	833.8142700195312	742.733154296875	1020.03076171875	831.4834594726562	709.8792724609375	1014.388793945312	965.3527221679688	704.9478759765625	960.5493774414062	656.691162109375	690.3309936523438	1019.01123046875	745.6334228515625	689.6463623046875	974.433349609375	732.6603393554688	736.2827758789062	613.6177368164062	1409.58544921875	700.9061279296875	546.7623901367188	1351.773071289062	690.3339233398438	488.0404052734375	1086.418579101562	693.2352905273438	577.094970703125	1076.070434570312	661.5155029296875	543.02978515625	869.4979858398438	809.5946655273438	466.82080078125	862.7382202148438	772.078857421875	475.8919372558594	1020.526489257812	724.1653442382812	544.9095458984375	685.451416015625	831.6558227539062	527.8639526367188	757.5057373046875	850.8833618164062	471.6401062011719	753.0532836914062	805.1394653320312	698.9718017578125	1587.35302734375	668.9586181640625	810.346435546875	1627.943969726562	847.3088989257812	717.082763671875	1623.05419921875	840.240966796875	845.2260131835938	1583.98974609375	680.0469970703125	928.6422729492188	951.956787109375	661.6806640625	547.577880859375	963.2941284179688	673.2801513671875	611.6793823242188	957.40869140625	796.7144775390625	863.4135131835938	943.2927856445312	807.5685424804688	861.3609008789062	477.1007080078125	711.3264770507812	889.2706298828125	618.109375	713.9091796875	827.287841796875	39.91830825805664	629.0311279296875	853.326416015625	251.9785308837891	665.284912109375	737.3392333984375	33.80464172363281	827.6517333984375	709.3310546875	28.1763973236084	749.9442138671875	821.0159912109375	35.81414031982422	750.9087524414062	773.8599853515625	37.98760986328125	575.7518920898438	568.5787353515625	483.8499755859375	711.5164794921875	539.62744140625	746.1224975585938	738.9684448242188	585.2711791992188	40.49978256225586	665.432861328125	577.8897705078125	363.5438842773438	720.1751098632812	626.272705078125	41.64330291748047	862.2042846679688	668.056884765625	34.10900115966797	806.644287109375	557.7693481445312	35.93725204467773	768.884521484375	635.3291625976562	32.62797927856445	615.748779296875	
459	4.58	660.2573852539062	1015.653198242188	584.143310546875	834.3553466796875	1000.440734863281	600.582275390625	751.6422119140625	1073.479248046875	611.7603759765625	747.9292602539062	1242.902954101562	862.5403442382812	756.3356323242188	1184.935180664062	598.060791015625	778.1529541015625	1430.387939453125	646.3295288085938	758.87744140625	1344.98388671875	802.41845703125	699.7710571289062	1294.525024414062	586.8405151367188	882.0994873046875	1389.106689453125	638.9439086914062	928.5049438476562	1392.896850585938	732.9119873046875	998.7150268554688	1273.16455078125	708.3794555664062	1004.932067871094	1069.7099609375	702.8961791992188	942.3147583007812	1061.3681640625	643.4046630859375	956.9234619140625	832.5884399414062	735.1512451171875	1020.42138671875	831.5748901367188	702.3668823242188	1014.350341796875	965.6290893554688	700.3784790039062	961.6529541015625	657.3682861328125	675.5609130859375	1019.847778320312	746.4215698242188	679.0573120117188	974.9464721679688	731.4658813476562	724.8328247070312	613.3936767578125	1409.478149414062	701.527587890625	546.5476684570312	1351.61669921875	691.0601196289062	487.7884216308594	1086.3134765625	694.9240112304688	576.6593017578125	1075.914916992188	662.81982421875	542.5224609375	870.043212890625	812.532958984375	466.3858032226562	863.0380859375	774.727294921875	475.5989990234375	1020.556945800781	726.05908203125	544.0089111328125	686.0919189453125	835.9112548828125	526.997802734375	758.2978515625	854.4971923828125	470.9517517089844	753.6206665039062	808.5684204101562	698.278076171875	1587.007446289062	669.4940795898438	809.4996948242188	1628.059692382812	847.82470703125	716.2548217773438	1622.877075195312	840.7578735351562	844.5714111328125	1584.17041015625	680.588134765625	927.9254760742188	951.6472778320312	662.533447265625	547.219482421875	963.3994140625	673.6729125976562	611.3129272460938	957.3331298828125	797.3828125	862.9880981445312	943.0297241210938	808.013916015625	861.1194458007812	477.0111389160156	710.4307250976562	888.98828125	618.025146484375	713.433349609375	827.3011474609375	39.7791633605957	628.9360961914062	853.2864990234375	252.0377807617188	664.619140625	737.4228515625	33.93222808837891	827.5465087890625	709.3290405273438	28.21327018737793	749.9404296875	821.038818359375	35.84821701049805	750.879150390625	773.8751220703125	37.85955810546875	575.7108764648438	568.328125	483.7410583496094	709.2694091796875	539.241943359375	746.0234985351562	739.4894409179688	585.254638671875	40.45819854736328	665.3890991210938	577.8497314453125	363.7354125976562	718.1930541992188	626.3281860351562	41.66964340209961	862.1719360351562	668.0665283203125	34.07914733886719	806.5724487304688	557.7785034179688	35.94730758666992	768.8612670898438	635.3189086914062	32.54790115356445	615.6895751953125	
460	4.59	659.9434204101562	1015.892456054688	584.6453857421875	834.0635375976562	1000.65966796875	601.16357421875	751.2625732421875	1073.442626953125	612.1441650390625	747.8602905273438	1242.740600585938	862.9939575195312	755.9411010742188	1184.836669921875	598.6135864257812	777.8056030273438	1430.306396484375	646.8154907226562	758.7613525390625	1344.87109375	802.9256591796875	699.328369140625	1294.422241210938	587.37890625	881.7234497070312	1389.006103515625	639.3447875976562	928.382568359375	1392.797241210938	733.2536010742188	998.6608276367188	1273.212524414062	707.6476440429688	1004.588623046875	1069.906372070312	699.863037109375	941.3331909179688	1062.150756835938	641.0423583984375	957.3490600585938	831.7686767578125	727.9993286132812	1020.82958984375	831.8739624023438	695.3486938476562	1014.432739257812	966.0319213867188	695.849365234375	962.6310424804688	658.488525390625	662.0282592773438	1020.604370117188	747.4149169921875	669.3297729492188	975.3706665039062	730.7587890625	714.23828125	613.1402587890625	1409.381713867188	702.1484985351562	546.296875	1351.487915039062	691.8040161132812	487.5068054199219	1086.226684570312	696.60400390625	576.1669311523438	1075.794555664062	664.0707397460938	542.0155639648438	870.6249389648438	815.4349975585938	465.9417114257812	863.3568725585938	777.3111572265625	475.2833862304688	1020.617248535156	727.9108276367188	543.0919189453125	686.74658203125	840.0430908203125	526.1248779296875	759.1034545898438	858.0162353515625	470.2535705566406	754.2052001953125	811.9126586914062	697.6206665039062	1586.683471679688	670.0176391601562	808.6979370117188	1628.157348632812	848.3211669921875	715.477783203125	1622.713012695312	841.266357421875	843.94140625	1584.32470703125	681.1079711914062	927.0020751953125	951.0706176757812	663.6947021484375	546.846923828125	963.4490966796875	674.0553588867188	610.903076171875	957.2142333984375	798.0101928710938	862.5358276367188	942.7882080078125	808.4730834960938	860.8729248046875	476.9261169433594	709.5109252929688	888.7018432617188	617.9434204101562	712.941162109375	827.3159790039062	39.65020751953125	628.8484497070312	853.2567138671875	252.0947418212891	663.9226684570312	737.51025390625	34.06035995483398	827.4329833984375	709.32763671875	28.25005149841309	749.9371948242188	821.0626220703125	35.88099670410156	750.8533325195312	773.87841796875	37.74929809570312	575.666259765625	568.086181640625	483.6192016601562	707.0863647460938	538.8131103515625	745.8811645507812	739.969482421875	585.2284545898438	40.41389083862305	665.3466186523438	577.7626953125	363.9010925292969	716.27685546875	626.3721923828125	41.70111083984375	862.1358642578125	668.0657958984375	34.0616455078125	806.5077514648438	557.7715454101562	35.94608688354492	768.83154296875	635.3026733398438	32.47245025634766	615.6309814453125	
461	4.600000000000001	659.6193237304688	1016.060302734375	585.1173095703125	833.7626953125	1000.8583984375	601.7135009765625	750.8504028320312	1073.351318359375	612.5366821289062	747.7471923828125	1242.589477539062	863.4376220703125	755.5267944335938	1184.73876953125	599.1503295898438	777.4176635742188	1430.218505859375	647.2880859375	758.6221313476562	1344.769775390625	803.4251708984375	698.8465576171875	1294.315185546875	587.919921875	881.3014526367188	1388.912231445312	639.7149658203125	928.2224731445312	1392.72021484375	733.5589599609375	998.6217041015625	1273.36962890625	706.7922973632812	1004.388977050781	1070.235595703125	696.6889038085938	940.5654296875	1063.051391601562	638.4647216796875	957.7911987304688	831.3145141601562	721.3043212890625	1021.256774902344	832.32861328125	688.823486328125	1014.630493164062	966.5364379882812	691.3814697265625	963.5015869140625	659.9224853515625	649.8724365234375	1021.266967773438	748.5206298828125	660.4934692382812	975.7122192382812	730.4676513671875	704.5819702148438	612.85400390625	1409.290405273438	702.7750244140625	546.0045166015625	1351.381469726562	692.5723266601562	487.1746826171875	1086.155883789062	698.2649536132812	575.6029052734375	1075.698364257812	665.2640991210938	541.5169677734375	871.2413330078125	818.281494140625	465.4894714355469	863.68896484375	779.8339233398438	474.9330139160156	1020.699890136719	729.7178344726562	542.189453125	687.4156494140625	844.04345703125	525.2735595703125	759.9219360351562	861.4326782226562	469.5615844726562	754.79931640625	815.1744995117188	696.9974975585938	1586.37939453125	670.5304565429688	807.9462890625	1628.2421875	848.7933959960938	714.7583618164062	1622.568481445312	841.765380859375	843.3323974609375	1584.446655273438	681.60205078125	925.8951416015625	950.2383422851562	665.130859375	546.4649658203125	963.4472045898438	674.4315185546875	610.4481201171875	957.0438232421875	798.5731201171875	862.0587768554688	942.5671997070312	808.93994140625	860.6246337890625	476.8448791503906	708.5748291015625	888.41796875	617.8631591796875	712.4371337890625	827.3309326171875	39.53261184692383	628.7688598632812	853.2343139648438	252.1473846435547	663.2086791992188	737.5994262695312	34.18656539916992	827.31396484375	709.327392578125	28.28525733947754	749.93408203125	821.0872802734375	35.91226196289062	750.8306884765625	773.8707885742188	37.65218734741211	575.6180419921875	567.8521728515625	483.4857177734375	704.986083984375	538.3391723632812	745.6873168945312	740.385009765625	585.1964721679688	40.3690299987793	665.3062133789062	577.6342163085938	364.0410461425781	714.4436645507812	626.405029296875	41.73503112792969	862.0977783203125	668.05810546875	34.05653381347656	806.4518432617188	557.75146484375	35.93466567993164	768.7962036132812	635.283447265625	32.40188217163086	615.5751342773438	
